<svg width="204" height="48" viewBox="0 0 204 48" fill="none" xmlns="http://www.w3.org/2000/svg">
<path fill-rule="evenodd" clip-rule="evenodd" d="M200.847 28.9961V8.57129L200.669 8.63084C199.659 8.86903 199.184 8.98812 198.471 9.04767C197.58 9.22631 197.104 9.28586 195.857 9.34541H195.738V9.94089H195.857C196.273 9.94089 196.51 10.06 196.748 10.2386C196.926 10.4173 197.104 10.6555 197.164 11.0127C197.223 11.2509 197.223 11.6678 197.283 12.1441C197.283 12.6205 197.283 13.216 197.283 13.6924V16.6102C196.926 16.2529 196.51 15.9552 196.095 15.7766C195.619 15.5384 195.025 15.4193 194.431 15.4193C192.47 15.4193 190.866 16.3125 189.678 17.8607C188.549 19.409 187.896 21.5527 187.896 24.1132C187.896 26.5547 188.431 28.5793 189.441 30.0084C190.45 31.4376 191.876 32.2117 193.718 32.2117C194.609 32.2117 195.382 32.0331 196.035 31.6162C196.57 31.3185 196.986 30.8421 197.402 30.2466V31.8544H202.57V31.3185H202.451C202.214 31.2589 202.036 31.1994 201.917 31.1399C201.739 31.0803 201.62 30.9612 201.501 30.7826C201.323 30.5444 201.204 30.3657 201.085 30.1275C200.847 29.9489 200.847 29.5916 200.847 28.9961ZM53.4496 8.92858H45.2509L45.1915 9.52405H45.3104C46.0233 9.52405 46.4986 9.76224 46.855 10.2386C47.2115 10.715 47.3303 11.4891 47.3303 12.561V28.4007C47.3303 29.4725 47.1521 30.2466 46.855 30.723C46.558 31.1994 46.0233 31.4376 45.3104 31.4376H45.1915V31.9735H59.0936V25.721H58.5589V25.8401C58.3213 27.567 57.6678 28.7579 56.5984 29.5916C55.529 30.4253 54.0437 30.8421 52.0832 30.8421C51.9049 30.8421 51.6673 30.8421 51.3108 30.8421V12.561C51.3108 11.4891 51.4891 10.715 51.8455 10.2386C52.202 9.76224 52.6773 9.52405 53.3902 9.52405H53.509V8.92858H53.4496ZM151.774 8.92858H145.774V9.52405H145.893C146.665 9.52405 147.14 9.76224 147.497 10.2386C147.853 10.715 147.972 11.4891 147.972 12.561V28.4007C147.972 29.4725 147.794 30.1871 147.497 30.6635C147.14 31.1399 146.665 31.378 145.952 31.378H145.833V31.914H151.299V31.378H151.18C150.883 31.378 150.645 31.3185 150.408 31.2589C150.17 31.1994 149.992 31.0803 149.814 30.9017C149.338 30.4253 149.101 29.8298 149.101 28.4007V12.7396L156.289 32.6881L163.359 12.5014V28.4602C163.359 29.4725 163.181 30.2466 162.825 30.723C162.468 31.1994 161.933 31.4376 161.22 31.4376H161.102V31.9735H169.3V31.4376H169.181C168.469 31.4376 167.993 31.1994 167.696 30.723C167.399 30.2466 167.221 29.4725 167.221 28.4602V12.561C167.221 11.4891 167.399 10.715 167.696 10.2386C167.993 9.76224 168.469 9.52405 169.181 9.52405H169.3V8.92858H163.359L157.656 25.3637L151.774 8.92858ZM68.837 15.4193C65.8664 15.4193 63.0147 17.4439 62.0641 20.3022C61.7077 21.374 61.5294 22.6245 61.5294 23.9941C61.5294 26.4951 62.183 28.5793 63.4306 30.068C64.6782 31.5567 66.4011 32.3308 68.5399 32.3308C70.441 32.3308 72.0451 31.6758 73.2333 30.5444C74.3621 29.413 75.0751 27.7456 75.1345 25.721V25.6019L74.5998 25.5424V25.6615C74.3621 26.912 73.8274 27.9243 73.0551 28.6388C72.2828 29.3534 71.3322 29.7107 70.144 29.7107C68.7181 29.7107 67.5893 29.1152 66.7576 28.1029C65.9258 27.0906 65.4505 25.6019 65.4505 23.8155V23.22H75.1345V23.1009C75.1939 22.8032 75.1939 22.565 75.1939 22.3863C75.1939 18.3371 72.5204 15.4193 68.837 15.4193ZM137.575 15.4193C134.605 15.4193 131.753 17.4439 130.802 20.3022C130.446 21.374 130.268 22.6245 130.268 23.9941C130.268 26.4951 130.921 28.5793 132.169 30.068C133.416 31.5567 135.139 32.3308 137.278 32.3308C139.179 32.3308 140.783 31.6758 141.971 30.5444C143.1 29.413 143.813 27.7456 143.873 25.721V25.6019L143.338 25.5424V25.6615C143.1 26.912 142.566 27.9243 141.793 28.6388C141.021 29.3534 140.07 29.7107 138.882 29.7107C137.456 29.7107 136.327 29.1152 135.496 28.1029C134.664 27.0906 134.189 25.6019 134.189 23.8155V23.22H143.873V23.1009C143.932 22.8032 143.932 22.565 143.932 22.3863C143.932 18.3371 141.259 15.4193 137.575 15.4193ZM178.39 15.4193C175.42 15.4193 172.568 17.4439 171.617 20.3022C171.261 21.374 171.083 22.6245 171.083 23.9941C171.083 26.4951 171.736 28.5793 172.984 30.068C174.231 31.5567 175.954 32.3308 178.093 32.3308C179.994 32.3308 181.598 31.6758 182.787 30.5444C183.915 29.413 184.628 27.7456 184.688 25.721V25.6019L184.153 25.5424V25.6615C183.915 26.912 183.381 27.9243 182.608 28.6388C181.836 29.3534 180.885 29.7107 179.697 29.7107C178.271 29.7107 177.143 29.1152 176.311 28.1029C175.479 27.0906 175.004 25.6019 175.004 23.8155V23.22H184.688V23.1009C184.747 22.8032 184.747 22.565 184.747 22.3863C184.747 18.3371 182.074 15.4193 178.39 15.4193ZM84.8778 15.4193C83.3926 15.4193 82.0855 15.7766 81.0161 16.4911C79.9467 17.2057 79.1744 18.2776 78.6397 19.6472L78.5803 19.8258H79.115L79.1744 19.7663C79.5903 19.0517 80.125 18.5157 80.7785 18.1585C81.432 17.8012 82.2638 17.6225 83.2737 17.6225C84.2243 17.6225 84.9372 17.8607 85.4125 18.218C85.8878 18.6348 86.1254 19.2303 86.1254 20.1235C86.1254 20.4213 86.066 20.6595 86.0066 20.8381C85.8878 21.0168 85.769 21.1954 85.5313 21.374C85.0561 21.7313 84.2243 21.9695 82.8579 22.3268C80.4814 22.8627 79.9467 23.0414 79.2338 23.6368C78.1644 24.411 77.7485 25.6019 77.7485 27.3884C77.7485 29.0557 78.105 30.2466 78.7585 31.0803C79.4715 31.914 80.5408 32.3308 81.9667 32.3308C82.9767 32.3308 83.8678 32.1522 84.5808 31.6758C85.2343 31.3185 85.7096 30.7826 86.1849 30.0084C86.2443 30.6635 86.4819 31.1994 86.9572 31.6162C87.4325 32.0331 88.1454 32.3308 88.9772 32.3308C89.8683 32.3308 90.5812 32.0331 91.0565 31.4971C91.5318 30.9017 91.71 30.068 91.71 28.9366V28.8175H91.1753V28.9961C91.1159 29.5916 90.9971 29.9489 90.8783 30.1871C90.8189 30.3062 90.7595 30.3657 90.6407 30.4253C90.5812 30.4848 90.4624 30.4848 90.2842 30.4848C90.106 30.4848 89.9871 30.3657 89.8683 30.1871C89.7495 30.0084 89.6901 29.6512 89.6901 29.2939L89.7495 28.6388V20.3617C89.7495 19.2303 89.6901 18.5157 89.5713 17.9203C89.393 17.3843 89.1554 16.9675 88.6801 16.6102C87.7295 15.8361 86.4225 15.4193 84.8778 15.4193ZM101.038 15.4193C96.9382 15.4193 94.0271 19.1708 94.0271 24.411C94.0271 26.7333 94.6212 28.6984 95.6906 30.068C96.76 31.4376 98.3046 32.2713 100.087 32.2713C101.453 32.2713 102.76 31.7353 103.592 30.723C103.889 30.4253 104.067 30.1275 104.246 29.7107V31.378C104.246 32.9858 103.889 34.1172 103.176 34.9509C102.463 35.725 101.453 36.1419 100.028 36.1419C98.8393 36.1419 97.8887 35.9037 97.2352 35.4273C96.5223 34.9509 96.047 34.2959 95.8688 33.4027V33.2836H95.3341V33.4027C95.5717 34.9509 96.2253 36.1419 97.2946 36.9755C98.364 37.8092 99.7899 38.2856 101.513 38.2856C103.176 38.2856 104.662 37.8092 105.731 36.9755C106.8 36.1419 107.513 34.8318 107.751 33.2836C107.81 32.7476 107.87 32.0331 107.87 31.2589V18.7539C107.87 18.218 107.87 17.8607 107.989 17.563C108.048 17.2652 108.167 17.0866 108.345 16.8484C108.523 16.6698 108.642 16.6102 108.761 16.4911C108.939 16.4316 109.117 16.372 109.355 16.3125H109.474V15.717H104.246V16.908C103.889 16.4316 103.473 16.0743 102.998 15.8361C102.404 15.5979 101.75 15.4193 101.038 15.4193ZM116.9 15.7766H111.791V16.372H111.91C112.385 16.4316 112.741 16.6698 112.979 17.0271C113.217 17.3843 113.336 17.9798 113.336 18.7539V27.9243C113.336 29.3534 113.514 30.068 114.048 30.7826C114.821 31.7949 116.009 32.2713 117.494 32.2713C119.514 32.2713 121.178 31.4971 122.722 29.8894V31.914H127.891V31.378H127.772C127.535 31.3185 127.356 31.3185 127.178 31.1994C127 31.1399 126.881 31.0208 126.762 30.8421C126.584 30.6039 126.465 30.4253 126.406 30.1871C126.346 29.8894 126.287 29.5321 126.287 28.9961V15.7766H121.237V16.372H121.356C121.831 16.4316 122.188 16.6698 122.425 17.0271C122.663 17.3843 122.782 17.9798 122.782 18.7539V27.3288C122.782 28.0434 122.722 28.4602 122.604 28.8175C122.485 29.1748 122.307 29.413 121.95 29.7703C121.297 30.4253 120.524 30.723 119.514 30.723C118.564 30.723 117.91 30.4848 117.494 30.068C117.078 29.5916 116.841 28.9366 116.841 27.9243V15.7766H116.9ZM66.6388 17.6225C66.1041 18.6944 65.7476 20.2426 65.6288 22.2673H71.6293V21.6718C71.6293 19.7067 71.3916 18.3371 70.9163 17.3843C70.6787 16.908 70.3816 16.5507 70.0846 16.372C69.7281 16.1338 69.3717 16.0147 68.8964 16.0147C68.0052 16.0147 67.2329 16.5507 66.6388 17.6225ZM140.189 22.3268H134.189C134.307 20.3022 134.605 18.6944 135.199 17.6821C135.733 16.6102 136.506 16.0743 137.456 16.0743C137.931 16.0743 138.288 16.1934 138.644 16.4316C139.001 16.6698 139.239 16.9675 139.476 17.4439C139.951 18.3967 140.189 19.8258 140.189 21.7313V22.3268ZM181.004 22.3268H175.004C175.123 20.3022 175.42 18.6944 176.014 17.6821C176.548 16.6102 177.321 16.0743 178.271 16.0743C178.747 16.0743 179.103 16.1934 179.46 16.4316C179.816 16.6698 180.054 16.9675 180.291 17.4439C180.767 18.3967 181.004 19.8258 181.004 21.7313V22.3268V22.3268ZM192.114 18.6348C192.292 17.7416 192.649 17.0866 193.065 16.6698C193.48 16.2529 194.015 16.0743 194.669 16.0743C195.5 16.0743 196.154 16.372 196.57 16.908C196.986 17.4439 197.223 18.2776 197.223 19.2899V27.9838C197.223 28.9961 196.926 29.7703 196.51 30.3657C196.035 30.9612 195.382 31.2589 194.609 31.2589C194.075 31.2589 193.599 31.1399 193.243 30.8421C192.886 30.6039 192.53 30.1871 192.292 29.5916C191.817 28.4602 191.579 26.6738 191.579 24.1728C191.579 21.8504 191.758 20.2426 192.114 18.6348ZM97.8888 24.3514C97.8888 21.6718 98.2452 19.6472 98.8393 18.3371C99.1364 17.6821 99.5522 17.1462 100.028 16.8484C100.503 16.4911 101.038 16.372 101.632 16.372C102.463 16.372 103.176 16.6698 103.592 17.2057C104.067 17.7416 104.305 18.5753 104.305 19.6472V26.7929C104.305 28.0434 103.949 29.1152 103.414 29.8894C102.879 30.6635 102.107 31.0803 101.216 31.0803C100.146 31.0803 99.3146 30.4848 98.7205 29.3534C98.1858 28.222 97.8888 26.4951 97.8888 24.3514ZM84.9372 22.3268C85.2343 22.2077 85.4719 22.0886 85.6502 22.0291C85.769 21.9695 85.8284 21.91 85.8878 21.8504C85.9472 21.8504 85.9472 21.7909 86.0066 21.7909V27.8052C86.0066 28.877 85.8284 29.5321 85.4719 29.8894C85.0561 30.3657 84.2837 30.6635 83.5708 30.6635C82.9173 30.6635 82.3826 30.4848 81.9073 30.1275C81.7291 29.9489 81.6102 29.7107 81.4914 29.4725C81.3132 28.9961 81.2538 27.9838 81.2538 26.9715C81.2538 25.8401 81.432 24.8278 81.7291 24.2323C81.9073 23.9346 82.0855 23.6964 82.3826 23.5178C82.6796 23.2796 83.0955 23.1009 83.6896 22.9223C83.8084 22.8627 83.9273 22.8627 84.0461 22.8032C84.4025 22.5054 84.6996 22.4459 84.9372 22.3268Z" fill="white"/>
<path fill-rule="evenodd" clip-rule="evenodd" d="M25.275 22.1684L19.5319 17.1738L13.6704 21.8711L10.71 19.5522L19.5319 12.6549L25.9855 17.5306L28.4722 19.4333L26.5776 20.9792L25.275 22.1684ZM32.7944 19.6711L38.0638 15.7468L19.5319 1.71436L1.17762 15.7468L6.26946 19.6711L1 23.5954L6.38787 27.6387L1 31.563L19.6503 45.7144L38.0046 31.6819L32.7352 27.6387L37.9454 23.5954L32.7944 19.6711ZM19.6503 29.9576L26.1039 24.963L30.7221 21.3954L33.6825 23.7144L19.6503 34.4171L5.44055 23.5954L8.51934 21.2765L19.6503 29.9576ZM19.5319 9.44409L8.46013 18.0657L5.49976 15.7468L19.5319 5.04409L33.7417 15.8657L30.6629 18.1846L29.2419 17.0549L19.5319 9.44409ZM8.46013 29.363L19.5911 37.8657L30.6629 29.363L33.6233 31.6819L19.5911 42.3846L5.38135 31.6819L8.46013 29.363ZM15.6834 23.5954L19.4135 20.6225L23.1436 23.7738L19.5911 26.5684L15.6834 23.5954Z" fill="#AD8B45"/>
</svg>
