<svg width="24" height="24" viewBox="0 0 24 24" fill="none" xmlns="http://www.w3.org/2000/svg">
<path d="M6.29597 8.79389C6.49327 8.59796 6.74439 8.5 7.04933 8.5C7.35426 8.5 7.60538 8.59796 7.80269 8.79389L12 12.9618L16.1973 8.79389C16.3946 8.59796 16.6457 8.5 16.9507 8.5C17.2556 8.5 17.5067 8.59796 17.704 8.79389C17.9013 8.98982 18 9.23919 18 9.54198C18 9.84478 17.9013 10.0941 17.704 10.2901L12.7534 15.2061C12.6457 15.313 12.5291 15.3889 12.4036 15.4337C12.278 15.4779 12.1435 15.5 12 15.5C11.8565 15.5 11.722 15.4779 11.5964 15.4337C11.4709 15.3889 11.3543 15.313 11.2466 15.2061L6.29597 10.2901C6.09866 10.0941 6 9.84478 6 9.54198C6 9.23918 6.09866 8.98982 6.29597 8.79389Z" fill="white"/>
</svg>
