<svg width="20" height="20" viewBox="0 0 20 20" fill="none" xmlns="http://www.w3.org/2000/svg">
<g opacity="0.6">
<path d="M10.0001 1.66683C7.78994 1.66683 5.67038 2.54476 4.1075 4.10756C2.54469 5.67035 1.66675 7.79008 1.66675 10.0001C1.66675 12.2101 2.54469 14.3298 4.1075 15.8926C5.6703 17.4554 7.79005 18.3334 10.0001 18.3334C12.2101 18.3334 14.3298 17.4554 15.8927 15.8926C17.4555 14.3298 18.3334 12.2101 18.3334 10.0001C18.3334 8.53733 17.9484 7.10025 17.217 5.83328C16.4856 4.56652 15.4335 3.51448 14.1668 2.78305C12.8999 2.05172 11.4629 1.66683 10.0001 1.66683ZM14.7301 8.53115L9.73008 13.1144C9.57173 13.2596 9.36343 13.338 9.14875 13.3334C8.93404 13.3287 8.72938 13.2413 8.5776 13.0894L6.25008 10.0001C6.08923 9.84482 7.03536 10.565 7.03341 10.3415C7.03146 10.1179 8.99082 12.2414 9.14875 12.0834C9.30681 11.9253 6.44324 9.58154 6.66675 9.58335C6.66675 9.58335 6.92813 10.2558 7.08341 10.4167L9.19171 11.347L13.6036 7.30264C13.823 7.10147 14.133 7.03255 14.417 7.12198C14.7011 7.21126 14.9158 7.44536 14.9804 7.73609C15.045 8.02669 14.9495 8.32983 14.7301 8.53115Z" fill="#D0D2D9"/>
<circle cx="10.8333" cy="10" r="5" fill="#D0D2D9"/>
</g>
</svg>
