<svg width="24" height="24" viewBox="0 0 24 24" fill="none" xmlns="http://www.w3.org/2000/svg">
<path fill-rule="evenodd" clip-rule="evenodd" d="M5.49175 17.7405C5.00359 18.2286 5.00359 19.0201 5.49175 19.5083C5.97991 19.9964 6.77137 19.9964 7.25953 19.5083L12.5627 14.2051L17.8661 19.5085C18.3542 19.9967 19.1457 19.9967 19.6339 19.5085C20.122 19.0204 20.122 18.2289 19.6339 17.7407L14.3305 12.4373L19.6339 7.1339C20.122 6.64574 20.122 5.85428 19.6339 5.36612C19.1457 4.87796 18.3543 4.87796 17.8661 5.36612L12.5627 10.6695L7.25951 5.36639C6.77135 4.87823 5.97989 4.87823 5.49173 5.36639C5.00357 5.85455 5.00357 6.64601 5.49173 7.13417L10.7949 12.4373L5.49175 17.7405Z" fill="white"/>
</svg>
