<svg width="24" height="24" viewBox="0 0 24 24" fill="none" xmlns="http://www.w3.org/2000/svg">
<path fill-rule="evenodd" clip-rule="evenodd" d="M1.99986 4.25001C1.99986 3.55965 2.55951 3 3.24987 3H20.7498C21.4402 3 21.9999 3.55965 21.9999 4.25001C21.9999 4.94037 21.4402 5.50002 20.7498 5.50002H3.24987C2.55951 5.50002 1.99986 4.94037 1.99986 4.25001ZM2 19.25C2 18.5596 2.55965 18 3.25001 18H20.75C21.4404 18 22 18.5596 22 19.25C22 19.9404 21.4404 20.5 20.75 20.5H3.25001C2.55965 20.5 2 19.9404 2 19.25ZM10.25 10.5C9.55965 10.5 9 11.0596 9 11.75C9 12.4404 9.55965 13 10.25 13H20.75C21.4404 13 22 12.4404 22 11.75C22 11.0596 21.4404 10.5 20.75 10.5H10.25Z" fill="white"/>
</svg>
