<svg width="371" height="449" viewBox="0 0 371 449" fill="none" xmlns="http://www.w3.org/2000/svg">
<path fill-rule="evenodd" clip-rule="evenodd" d="M242.987 208.492L185.5 157.581L126.827 205.462L97.1949 181.825L185.5 111.519L250.099 161.218L274.99 180.613L256.026 196.371L242.987 208.492ZM318.254 183.037L371 143.035L185.5 0L1.77796 143.035L52.746 183.037L0 223.038L53.9313 264.252L0 304.253L186.685 448.501L370.407 305.466L317.661 264.252L369.815 223.038L318.254 183.037ZM186.685 287.889L251.284 236.978L297.511 200.613L327.144 224.25L186.685 333.345L44.4489 223.038L75.2668 199.401L186.685 287.889ZM185.5 78.7907L74.6741 166.673L45.0415 143.035L185.5 33.9406L327.736 144.248L296.919 167.885L282.695 156.369L185.5 78.7907ZM74.6741 281.828L186.093 368.498L296.919 281.828L326.551 305.466L186.093 414.56L43.8562 305.466L74.6741 281.828ZM146.978 223.038L184.315 192.734L221.652 224.857L186.093 253.342L146.978 223.038Z" fill="white" fill-opacity="0.05"/>
<path fill-rule="evenodd" clip-rule="evenodd" d="M242.987 208.492L185.5 157.581L126.827 205.462L97.1949 181.825L185.5 111.519L250.099 161.218L274.99 180.613L256.026 196.371L242.987 208.492ZM318.254 183.037L371 143.035L185.5 0L1.77796 143.035L52.746 183.037L0 223.038L53.9313 264.252L0 304.253L186.685 448.501L370.407 305.466L317.661 264.252L369.815 223.038L318.254 183.037ZM186.685 287.889L251.284 236.978L297.511 200.613L327.144 224.25L186.685 333.345L44.4489 223.038L75.2668 199.401L186.685 287.889ZM185.5 78.7907L74.6741 166.673L45.0415 143.035L185.5 33.9406L327.736 144.248L296.919 167.885L282.695 156.369L185.5 78.7907ZM74.6741 281.828L186.093 368.498L296.919 281.828L326.551 305.466L186.093 414.56L43.8562 305.466L74.6741 281.828ZM146.978 223.038L184.315 192.734L221.652 224.857L186.093 253.342L146.978 223.038Z" fill="#212C4D" fill-opacity="0.05"/>
</svg>
