<svg width="74" height="74" viewBox="0 0 74 74" fill="none" xmlns="http://www.w3.org/2000/svg">
<rect width="74" height="74" rx="37" fill="white"/>
<rect x="4" y="4" width="66" height="66" rx="33" fill="#3CABFC"/>
<path d="M42.9561 31.7366C45.9106 33.6699 47.3879 34.6365 47.78 35.9157C47.9966 36.6223 47.9966 37.3777 47.78 38.0843C47.3879 39.3635 45.9106 40.3301 42.9561 42.2634L38.234 45.3532C34.7464 47.6352 33.0026 48.7763 31.5625 48.5244C30.772 48.3861 30.0478 47.9945 29.4992 47.4087C28.5 46.3416 28.5 44.2577 28.5 40.0898L28.5 33.9102C28.5 29.7423 28.5 27.6584 29.4993 26.5913C30.0478 26.0055 30.772 25.6139 31.5625 25.4756C33.0026 25.2237 34.7464 26.3648 38.234 28.6468L42.9561 31.7366Z" fill="white"/>
</svg>
