<svg width="41" height="41" viewBox="0 0 41 41" fill="none" xmlns="http://www.w3.org/2000/svg">
<rect x="0.652161" y="0.434788" width="40" height="40" rx="20" fill="#BE9A4F"/>
<path d="M23.5382 16.2767C23.6063 16.0725 23.7973 15.9348 24.0125 15.9348H26.0619C26.3709 15.9348 26.6059 16.2122 26.5551 16.517L25.2218 24.517C25.1816 24.7581 24.973 24.9348 24.7286 24.9348H21.3459C21.0046 24.9348 20.7636 24.6004 20.8715 24.2767L23.5382 16.2767Z" fill="white"/>
<path d="M17.5382 16.2767C17.6063 16.0725 17.7973 15.9348 18.0125 15.9348H20.0619C20.3709 15.9348 20.6059 16.2122 20.5551 16.517L19.2218 24.517C19.1816 24.7581 18.973 24.9348 18.7286 24.9348H15.3459C15.0046 24.9348 14.7636 24.6004 14.8715 24.2767L17.5382 16.2767Z" fill="white"/>
</svg>
