<svg width="24" height="24" viewBox="0 0 24 24" fill="none" xmlns="http://www.w3.org/2000/svg">
<g clip-path="url(#clip0_440_3031)">
<path fill-rule="evenodd" clip-rule="evenodd" d="M10.9512 2.5C9.6035 2.50011 8.27532 2.82253 7.07752 3.44035C5.87972 4.05817 4.84703 4.95347 4.06561 6.05157C3.2842 7.14966 2.77671 8.41871 2.5855 9.75282C2.39428 11.0869 2.52488 12.4474 2.9664 13.7208C3.40792 14.9942 4.14756 16.1435 5.1236 17.0729C6.09965 18.0023 7.28379 18.6848 8.57725 19.0635C9.87071 19.4421 11.236 19.506 12.5591 19.2497C13.8823 18.9934 15.125 18.4245 16.1835 17.5902L19.8149 21.2216C20.0024 21.4027 20.2536 21.5029 20.5143 21.5007C20.775 21.4984 21.0244 21.3938 21.2088 21.2095C21.3931 21.0251 21.4977 20.7757 21.5 20.515C21.5022 20.2543 21.402 20.0031 21.2209 19.8156L17.5895 16.1842C18.5719 14.9379 19.1836 13.4402 19.3546 11.8625C19.5255 10.2848 19.2489 8.69084 18.5562 7.26302C17.8636 5.83521 16.783 4.63124 15.438 3.78891C14.0931 2.94657 12.5382 2.49989 10.9512 2.5V2.5ZM4.48798 10.952C4.48798 9.2378 5.16893 7.59384 6.38102 6.38174C7.59312 5.16965 9.23708 4.4887 10.9512 4.4887C12.6654 4.4887 14.3094 5.16965 15.5215 6.38174C16.7336 7.59384 17.4145 9.2378 17.4145 10.952C17.4145 12.6661 16.7336 14.3101 15.5215 15.5222C14.3094 16.7343 12.6654 17.4152 10.9512 17.4152C9.23708 17.4152 7.59312 16.7343 6.38102 15.5222C5.16893 14.3101 4.48798 12.6661 4.48798 10.952V10.952Z" fill="white"/>
</g>
<defs>
<clipPath id="clip0_440_3031">
<rect width="24" height="24" fill="white"/>
</clipPath>
</defs>
</svg>
