<svg width="20" height="20" viewBox="0 0 20 20" fill="none" xmlns="http://www.w3.org/2000/svg">
<g opacity="0.8">
<path d="M10.0001 1.66683C7.78994 1.66683 5.67038 2.54476 4.1075 4.10756C2.54469 5.67035 1.66675 7.79008 1.66675 10.0001C1.66675 12.2101 2.54469 14.3298 4.1075 15.8926C5.6703 17.4554 7.79005 18.3334 10.0001 18.3334C12.2101 18.3334 14.3298 17.4554 15.8927 15.8926C17.4555 14.3298 18.3334 12.2101 18.3334 10.0001C18.3334 8.53733 17.9484 7.10025 17.217 5.83328C16.4856 4.56652 15.4335 3.51448 14.1668 2.78305C12.8999 2.05172 11.4628 1.66669 9.99994 1.66669L10.0001 1.66683ZM14.7301 8.53115L9.73008 13.1144C9.57173 13.2596 9.36343 13.338 9.14875 13.3334C8.93404 13.3287 8.72938 13.2413 8.5776 13.0894L6.07756 10.5894C5.9167 10.4341 5.82505 10.2208 5.82309 9.99733C5.82114 9.7737 5.90917 9.55887 6.0671 9.4008C6.22516 9.24273 6.44014 9.15484 6.66364 9.15665C6.88714 9.15861 7.10057 9.25027 7.25586 9.41112L9.19171 11.347L13.6036 7.30264C13.823 7.10147 14.133 7.03255 14.417 7.12198C14.7011 7.21127 14.9158 7.44536 14.9804 7.73609C15.045 8.02669 14.9495 8.3297 14.7302 8.53102L14.7301 8.53115Z" fill="#01A66A"/>
</g>
</svg>
