<svg width="24" height="24" viewBox="0 0 24 24" fill="none" xmlns="http://www.w3.org/2000/svg">
<path d="M6.29597 15.2061C6.49327 15.402 6.74439 15.5 7.04933 15.5C7.35426 15.5 7.60538 15.402 7.80269 15.2061L12 11.0382L16.1973 15.2061C16.3946 15.402 16.6457 15.5 16.9507 15.5C17.2556 15.5 17.5067 15.402 17.704 15.2061C17.9013 15.0102 18 14.7608 18 14.458C18 14.1552 17.9013 13.9059 17.704 13.7099L12.7534 8.79389C12.6457 8.68702 12.5291 8.61115 12.4036 8.56626C12.278 8.52209 12.1435 8.5 12 8.5C11.8565 8.5 11.722 8.52209 11.5964 8.56626C11.4709 8.61115 11.3543 8.68702 11.2466 8.79389L6.29597 13.7099C6.09866 13.9059 6 14.1552 6 14.458C6 14.7608 6.09866 15.0102 6.29597 15.2061V15.2061Z" fill="white"/>
</svg>
