<svg width="20" height="20" viewBox="0 0 20 20" fill="none" xmlns="http://www.w3.org/2000/svg">
<g opacity="0.8">
<path d="M10.0001 1.66677C7.78994 1.66677 5.67038 2.5447 4.1075 4.1075C2.54469 5.67029 1.66675 7.79002 1.66675 10C1.66675 12.21 2.54469 14.3297 4.1075 15.8926C5.6703 17.4554 7.79005 18.3333 10.0001 18.3333C12.2101 18.3333 14.3298 17.4554 15.8927 15.8926C17.4555 14.3298 18.3334 12.21 18.3334 10C18.3334 8.53727 17.9484 7.10019 17.217 5.83322C16.4856 4.56646 15.4335 3.51442 14.1668 2.78299C12.8999 2.05166 11.4629 1.66677 10.0001 1.66677ZM14.7301 8.53109L9.73008 13.1143C9.57173 13.2596 9.36343 13.338 9.14875 13.3334C8.93404 13.3286 8.72938 13.2413 8.5776 13.0894L6.07756 10.5893C5.91671 10.4341 5.82505 10.2208 5.82309 9.99727C5.82114 9.77364 5.90917 9.55881 6.0671 9.40073C6.22516 9.24267 6.44014 9.15478 6.66364 9.15659C6.88714 9.15855 7.10057 9.2502 7.25586 9.41106L9.19171 11.3469L13.6036 7.30258C13.823 7.10141 14.133 7.03249 14.417 7.12192C14.7011 7.2112 14.9158 7.4453 14.9804 7.73603C15.045 8.02663 14.9495 8.32977 14.7301 8.53109Z" fill="#CA2A2A"/>
<circle cx="9.99992" cy="10" r="6.66667" fill="#CA2A2A"/>
<rect width="1.65957" height="9.95744" rx="0.829787" transform="matrix(0.696725 -0.717338 0.696725 0.717338 5.83325 7.0238)" fill="white"/>
<rect width="1.65957" height="9.95744" rx="0.829787" transform="matrix(-0.696725 -0.717338 -0.696725 0.717338 14.1665 7.0238)" fill="white"/>
</g>
</svg>
